<svg xmlns="http://www.w3.org/2000/svg" xmlns:xlink="http://www.w3.org/1999/xlink" xmlns:fi="http://pattern.flaticon.com/" x="0" y="0" width="700" height="350" viewBox="0 0 700 350"><rect x="0px" y="0px" width="100%" height="100%" opacity="1" fill="#ffffff"/><defs><g transform="matrix(0.1171872690320015 0 0 0.1171872690320015 217 294)" id="L1_0"><g fill="#6a80ff"><path d="m363.894531 148.960938h38.773438v39.460937h-38.773438zm0 0"/><path d="m311.40625 19.707031 90.113281 90.113281c10.113281 10.113282 10.113281 26.511719 0 36.625-10.113281 10.113282-26.511719 10.113282-36.625 0l-66.539062-66.542968zm0 0"/><path d="m154.121094 130.007812 110.261718-110.261718c12.996094-12.996094 34.066407-12.996094 47.0625 0 12.996094 13 12.996094 34.070312 0 47.066406l-109.847656 109.847656zm0 0"/></g><path d="m321.171875 43.144531c0 18.316407-14.847656 33.164063-33.164063 33.164063-18.316406 0-33.164062-14.847656-33.164062-33.164063 0-18.316406 14.847656-33.164062 33.164062-33.164062 18.316407 0 33.164063 14.847656 33.164063 33.164062zm0 0" fill="#ade5ff"/><path d="m199.386719 175.378906 27.347656 118.195313h-140.871094l27.34375-118.195313zm0 0" fill="#6a80ff"/><path d="m244.03125 417.996094h-175.558594v-105.363282c0-10.523437 8.53125-19.058593 19.058594-19.058593h137.441406c10.523438 0 19.058594 8.535156 19.058594 19.058593zm0 0" fill="#ade5ff"/><path d="m199.386719 175.378906c0 23.800782-19.289063 43.089844-43.089844 43.089844-23.796875 0-43.085937-19.289062-43.085937-43.089844 0-23.796875 19.289062-43.085937 43.085937-43.085937 23.800781 0 43.089844 19.289062 43.089844 43.085937zm0 0" fill="#ade5ff"/><path d="m468.769531 311.960938c-8.105469 0-15.820312 3.488281-21.175781 9.570312l-38.535156 43.78125c-32.242188 36.625-76.628906 59.855469-124.492188 65.808594v-29.699219c0-20.136719-16.324218-36.460937-36.460937-36.460937h-105.660157c-45.730468 0-89.285156 19.535156-119.699218 53.691406l-12.746094 14.3125v69.035156h261.382812c55.640626 0 108.730469-23.355469 146.328126-64.375l71.851562-78.394531c16.585938-18.09375 3.75-47.269531-20.792969-47.269531zm0 0" fill="#feda9b"/><path d="m156.296875 185.386719c2.628906 0 5.210937-1.070313 7.070313-2.9375 1.859374-1.859375 2.929687-4.429688 2.929687-7.070313 0-2.632812-1.070313-5.210937-2.929687-7.070312-1.859376-1.859375-4.441407-2.929688-7.070313-2.929688s-5.210937 1.070313-7.070313 2.929688c-1.859374 1.859375-2.929687 4.4375-2.929687 7.070312 0 2.640625 1.070313 5.210938 2.929687 7.070313 1.859376 1.867187 4.4375 2.9375 7.070313 2.9375zm0 0"/><path d="m280.941406 50.210938c1.859375 1.871093 4.4375 2.933593 7.070313 2.933593 2.628906 0 5.210937-1.0625 7.070312-2.933593 1.859375-1.859376 2.929688-4.4375 2.929688-7.066407 0-2.632812-1.070313-5.210937-2.929688-7.070312-1.859375-1.863281-4.441406-2.933594-7.070312-2.933594-2.632813 0-5.210938 1.070313-7.070313 2.933594-1.871094 1.859375-2.929687 4.4375-2.929687 7.070312 0 2.628907 1.058593 5.207031 2.929687 7.066407zm0 0"/><path d="m173.152344 323.214844h-33.800782c-5.523437 0-10 4.480468-10 10.003906 0 5.519531 4.476563 10 10 10h33.800782c5.523437 0 10-4.480469 10-10 0-5.523438-4.476563-10.003906-10-10.003906zm0 0"/><path d="m103.664062 323.222656c-2.640624 0-5.21875 1.0625-7.082031 2.921875-1.859375 1.867188-2.917969 4.4375-2.917969 7.070313 0 2.636718 1.058594 5.207031 2.917969 7.070312 1.863281 1.867188 4.441407 2.929688 7.082031 2.929688 2.628907 0 5.210938-1.0625 7.070313-2.929688 1.859375-1.863281 2.929687-4.433594 2.929687-7.070312 0-2.632813-1.070312-5.203125-2.929687-7.070313-1.859375-1.859375-4.441406-2.921875-7.070313-2.921875zm0 0"/><path d="m208.839844 323.222656c-2.632813 0-5.210938 1.0625-7.0625 2.921875-1.867188 1.859375-2.929688 4.4375-2.929688 7.070313 0 2.636718 1.0625 5.207031 2.929688 7.070312 1.851562 1.867188 4.429687 2.929688 7.0625 2.929688 2.640625 0 5.21875-1.0625 7.078125-2.929688 1.859375-1.863281 2.929687-4.433594 2.929687-7.070312 0-2.632813-1.070312-5.203125-2.929687-7.070313-1.859375-1.859375-4.4375-2.921875-7.078125-2.921875zm0 0"/><path d="m383.175781 138.164062c2.628907 0 5.207031-1.070312 7.070313-2.929687 1.859375-1.859375 2.929687-4.4375 2.929687-7.070313 0-2.628906-1.070312-5.210937-2.929687-7.070312-1.863282-1.859375-4.441406-2.929688-7.070313-2.929688-2.640625 0-5.210937 1.070313-7.082031 2.929688-1.859375 1.859375-2.917969 4.441406-2.917969 7.070312 0 2.632813 1.058594 5.210938 2.917969 7.070313 1.871094 1.859375 4.441406 2.929687 7.082031 2.929687zm0 0"/><path d="m503.742188 324.785156c-6.191407-14.078125-19.59375-22.824218-34.972657-22.824218-10.976562 0-21.429687 4.726562-28.683593 12.964843l-38.535157 43.777344c-29.367187 33.359375-69.375 55.03125-112.714843 61.730469 3.640624-6.386719 5.726562-13.765625 5.726562-21.625 0-23.0625-17.898438-42.007813-40.53125-43.707032v-42.46875c0-12.460937-7.886719-23.109374-18.925781-27.230468l-24.070313-104.039063 87.316406-87.316406 55.542969 55.539063v34.785156l-37.964843 38.148437c-3.109376 3.125-3.808594 7.917969-1.71875 11.796875l18.886718 35.050782c1.804688 3.355468 5.25 5.257812 8.8125 5.257812 1.601563 0 3.226563-.382812 4.734375-1.195312 4.863281-2.621094 6.679688-8.6875 4.0625-13.546876l-15.363281-28.515624 32.785156-32.945313h30.308594l32.785156 32.945313-15.363281 28.515624c-2.617187 4.859376-.800781 10.925782 4.0625 13.546876 1.507813.8125 3.132813 1.195312 4.734375 1.195312 3.558594 0 7.007812-1.902344 8.8125-5.257812l18.882812-35.050782c2.09375-3.878906 1.394532-8.671875-1.714843-11.796875l-37.964844-38.148437v-35.410156c0-.101563-.011719-.199219-.015625-.300782 4.1875-5.980468 6.449219-13.078125 6.449219-20.527344 0-9.589843-3.734375-18.605468-10.515625-25.382812l-90.050782-90.054688c-.007812-.003906-.015624-.011718-.019531-.019531-.007812-.007812-.015625-.011719-.023437-.019531l-.019532-.019531c-.003906-.007813-.011718-.011719-.019531-.019531-8.167969-8.136719-19.011719-12.617188-30.542969-12.617188-11.5625 0-22.429687 4.503906-30.601562 12.675781l-110.261719 110.261719c-.070312.066406-.125.140625-.191406.210938-24.375 4.394531-43.007813 25.472656-43.617187 50.949218l-25.742188 111.261719c-11.097656 4.097656-19.027344 14.773437-19.027344 27.273437v64.507813c-16.046875 9.09375-30.683594 20.8125-43.195312 34.863281l-12.746094 14.3125c-3.671875 4.125-3.304688 10.445313.820312 14.117188 1.90625 1.699218 4.28125 2.53125 6.644532 2.53125 2.757812 0 5.5-1.128906 7.472656-3.347656l12.746094-14.316407c11.3125-12.703125 24.589844-23.246093 39.164062-31.351562 2.710938-.242188 5.109375-1.566407 6.761719-3.539063 20.421875-10.042968 43.078125-15.449218 66.304687-15.449218h108.273438c13.148438 0 23.84375 10.699218 23.847656 23.847656 0 13.148437-10.699218 23.84375-23.847656 23.84375l-67.042969.003906c-5.523437 0-10 4.476562-10 10s4.476563 10 10 10h76.386719c59.886719 0 116.929688-25.78125 156.503906-70.738281l38.535156-43.777344c3.457032-3.925781 8.4375-6.179687 13.667969-6.179687 7.441407 0 13.671875 4.066406 16.667969 10.878906 2.996094 6.808594 1.78125 14.148437-3.246094 19.632812l-71.851562 78.394532c-35.609375 38.851562-86.257813 61.132812-138.957032 61.132812h-261.382812c-5.523438 0-10 4.476562-10 10s4.476562 10 10 10h261.382812c58.289063 0 114.3125-24.644531 153.699219-67.617188l71.855469-78.394531c10.390625-11.335937 13-27.125 6.804688-41.203125zm-246.253907-251.117187c6.066407 6.066406 13.507813 9.933593 21.332031 11.625l-72.453124 72.453125c-5.421876-15.347656-17.710938-27.472656-33.160157-32.679688l72.667969-72.667968c1.699219 7.800781 5.5625 15.21875 11.613281 21.269531zm135.183594 104.753906h-18.773437v-15.613281c3 .796875 6.121093 1.222656 9.308593 1.222656 3.242188 0 6.417969-.4375 9.464844-1.265625zm6.429687-50.289063c0 4.246094-1.652343 8.238282-4.65625 11.238282-3 3.003906-6.992187 4.65625-11.238281 4.65625-4.246093 0-8.238281-1.652344-11.242187-4.65625l-59.46875-59.46875 6.019531-6.019532c5.925781-5.925781 9.910156-13.269531 11.660156-21.261718l64.269531 64.269531c3.003907 3.003906 4.65625 6.996094 4.65625 11.242187zm-94.726562-101.3125c4.394531 4.394532 6.816406 10.242188 6.816406 16.460938 0 5.761719-2.101562 11.191406-5.910156 15.457031-.308594.242188-.609375.5-.894531.785157-9.03125 9.03125-23.726563 9.03125-32.757813 0s-9.03125-23.726563 0-32.757813c.191406-.191406.367188-.390625.539063-.59375 4.304687-3.972656 9.851562-6.171875 15.746093-6.171875 6.21875 0 12.0625 2.421875 16.460938 6.820312zm-148.078125 115.46875c18.246094 0 33.089844 14.847657 33.089844 33.089844 0 18.246094-14.84375 33.089844-33.089844 33.089844-18.242187 0-33.085937-14.84375-33.085937-33.089844 0-18.242187 14.84375-33.089844 33.085937-33.089844zm-40.699219 67.132813c9.746094 11.632813 24.371094 19.050781 40.699219 19.050781 16.332031 0 30.957031-7.417968 40.703125-19.050781l17.15625 74.152344h-115.714844zm-37.125 158.046875v-54.835938c0-4.992187 4.0625-9.058593 9.058594-9.058593h137.441406c4.996094 0 9.058594 4.0625 9.058594 9.058593v42.328126h-91.582031c-22.160157 0-43.859375 4.347656-63.976563 12.507812zm0 0"/><path d="m154.355469 439.726562c1.859375-1.871093 2.929687-4.4375 2.929687-7.070312 0-2.640625-1.070312-5.207031-2.929687-7.078125-1.871094-1.859375-4.441407-2.921875-7.070313-2.921875s-5.210937 1.0625-7.082031 2.921875c-1.859375 1.871094-2.917969 4.4375-2.917969 7.078125 0 2.632812 1.058594 5.199219 2.917969 7.070312 1.871094 1.859376 4.453125 2.933594 7.082031 2.933594s5.203125-1.074218 7.070313-2.933594zm0 0"/></g><g transform="matrix(0.1171875 0 0 0.1171875 43 264.99999997070313)" id="L1_1"><path d="m394 204.101562c0 49.683594 20.742188 94.496094 54 126.34375 33.257812-31.847656 54-76.660156 54-126.34375 0-31.625-8.40625-61.28125-23.09375-86.871093-13.6875-23.84375-48.125-23.84375-61.8125 0-14.6875 25.59375-23.09375 55.246093-23.09375 86.871093zm0 0" fill="#36d28f"/><path d="m178 282.332031h270v111.667969h-270zm0 0" fill="#ffc66c"/><g fill="#ffffff"><path d="m218 316.5h40v40h-40zm0 0"/><path d="m293 316.5h40v40h-40zm0 0"/><path d="m368 316.5h40v40h-40zm0 0"/></g><path d="m125 226h-62c-20.699219 20.699219-32.300781 32.300781-53 53v115h168v-115c-20.699219-20.699219-32.300781-32.300781-53-53zm0 0" fill="#6a80ff"/><path d="m58 310h72v84h-72zm0 0" fill="#ffffff"/><path d="m448 279c-20.699219-20.699219-32.300781-32.300781-53-53h-270l53 53zm0 0" fill="#ade5ff"/><path d="m502 384h-44v-49.359375c34.855469-34.917969 54-81.101563 54-130.539063 0-32.25-8.445312-64.011718-24.421875-91.847656-8.230469-14.34375-23.027344-22.90625-39.578125-22.90625s-31.347656 8.5625-39.578125 22.90625c-15.976563 27.835938-24.421875 59.597656-24.421875 91.851563 0 3.960937.140625 7.933593.394531 11.894531h-67.394531c-5.523438 0-10 4.476562-10 10s4.476562 10 10 10h73.855469l33 33h-241.710938l-33-33h88.855469c5.523438 0 10-4.476562 10-10s-4.476562-10-10-10h-175c-2.652344 0-5.195312 1.054688-7.070312 2.929688l-53 53c-1.875 1.875-2.929688 4.417968-2.929688 7.070312v115c0 5.523438 4.476562 10 10 10h492c5.523438 0 10-4.476562 10-10s-4.476562-10-10-10zm-314-95h250v95h-250zm216.953125-67.191406c-.625-5.84375-.953125-11.789063-.953125-17.703125 0-9.867188.90625-19.679688 2.644531-29.316407l31.355469 31.355469v22.851563.007812 25.851563zm53.046875 82.601562v-71.265625l33.921875-33.921875c.046875 1.625.078125 3.253906.078125 4.882813 0 36.847656-11.929688 71.675781-34 100.304687zm-32.230469-182.199218c4.621094-8.054688 12.933594-12.863282 22.230469-12.863282s17.609375 4.808594 22.230469 12.863282c9.210937 16.046874 15.59375 33.566406 18.96875 51.722656-.535157.355468-1.046875.769531-1.519531 1.246094l-29.679688 29.675781v-2.851563-.007812-44.246094c0-5.523438-4.476562-10-10-10s-10 4.476562-10 10v20.105469l-25.628906-25.628907c3.445312-10.40625 7.917968-20.472656 13.398437-30.015624zm-357.769531 261.789062v-64h52v64zm72 0v-74c0-5.523438-4.476562-10-10-10h-72c-5.523438 0-10 4.476562-10 10v74h-28v-100.855469l47.144531-47.144531h53.714844l47.140625 47.144531v100.855469zm0 0"/><path d="m272.929688 218.929688c-1.859376 1.859374-2.929688 4.441406-2.929688 7.070312s1.070312 5.210938 2.929688 7.070312c1.859374 1.859376 4.441406 2.929688 7.070312 2.929688s5.210938-1.070312 7.070312-2.929688c1.859376-1.859374 2.929688-4.441406 2.929688-7.070312s-1.070312-5.210938-2.929688-7.070312c-1.859374-1.859376-4.441406-2.929688-7.070312-2.929688s-5.210938 1.070312-7.070312 2.929688zm0 0"/><path d="m258 306.5h-40c-5.523438 0-10 4.476562-10 10v40c0 5.523438 4.476562 10 10 10h40c5.523438 0 10-4.476562 10-10v-40c0-5.523438-4.476562-10-10-10zm-10 40h-20v-20h20zm0 0"/><path d="m333 306.5h-40c-5.523438 0-10 4.476562-10 10v40c0 5.523438 4.476562 10 10 10h40c5.523438 0 10-4.476562 10-10v-40c0-5.523438-4.476562-10-10-10zm-10 40h-20v-20h20zm0 0"/><path d="m408 306.5h-40c-5.523438 0-10 4.476562-10 10v40c0 5.523438 4.476562 10 10 10h40c5.523438 0 10-4.476562 10-10v-40c0-5.523438-4.476562-10-10-10zm-10 40h-20v-20h20zm0 0"/><path d="m87.554688 97.667969h31.53125c5.519531 0 10-4.476563 10-10 0-5.523438-4.480469-10-10-10h-31.53125c-7.472657 0-13.554688-6.082031-13.554688-13.554688 0-3.789062 1.570312-7.503906 4.308594-10.1875 2.617187-2.566406 5.972656-3.933593 9.519531-3.875 1.972656.035157 3.859375.484375 5.613281 1.332031 2.519532 1.214844 5.429688 1.320313 8.03125.292969 2.597656-1.027343 4.648438-3.101562 5.652344-5.710937 5.96875-15.53125 21.15625-25.964844 37.796875-25.964844 16.3125 0 30.886719 9.933594 37.179687 24.484375-2.175781 1.300781-4.246093 2.785156-6.160156 4.449219-3.816406 3.316406-6.988281 7.238281-9.429687 11.65625-2.671875 4.832031-.917969 10.917968 3.914062 13.589844 1.535157.84375 3.191407 1.25 4.828125 1.25 3.519532 0 6.9375-1.867188 8.761719-5.167969 1.304687-2.359375 3.003906-4.457031 5.042969-6.234375 2.457031-2.132813 5.375-3.726563 8.472656-4.648438 2.105469-.625 4.300781-.953125 6.527344-.953125 12.613281 0 22.878906 10.265625 22.878906 22.878907 0 5.523437 4.476562 10 10 10h36.0625c5.523438 0 10-4.476563 10-10 0-5.523438-4.476562-10-10-10h-27.242188c-4.515624-18.835938-21.496093-32.878907-41.699218-32.878907-.929688 0-1.855469.03125-2.78125.089844-8.925782-22.792969-31.277344-38.515625-56.355469-38.515625-21.726563 0-41.796875 11.90625-52.460937 30.398438-1.398438-.203126-2.8125-.320313-4.246094-.347657-8.910156-.179687-17.429688 3.234375-23.910156 9.59375-6.550782 6.421875-10.304688 15.339844-10.304688 24.46875 0 18.5 15.054688 33.554688 33.554688 33.554688zm0 0"/><path d="m311.5 91.300781c2.628906 0 5.210938-1.0625 7.070312-2.921875 1.859376-1.867187 2.929688-4.449218 2.929688-7.078125 0-2.628906-1.070312-5.199219-2.929688-7.070312-1.859374-1.859375-4.441406-2.929688-7.070312-2.929688s-5.210938 1.070313-7.070312 2.929688c-1.859376 1.871093-2.929688 4.441406-2.929688 7.070312 0 2.628907 1.070312 5.210938 2.929688 7.078125 1.859374 1.859375 4.441406 2.921875 7.070312 2.921875zm0 0"/><path d="m407.871094 20c3.652344 0 7.148437 1.347656 9.847656 3.796875 1.90625 1.726563 4.3125 2.59375 6.71875 2.59375s4.8125-.867187 6.714844-2.59375c2.703125-2.449219 6.199218-3.796875 9.847656-3.796875 5.523438 0 10-4.476562 10-10s-4.476562-10-10-10c-5.84375 0-11.523438 1.464844-16.5625 4.207031-5.042969-2.742187-10.71875-4.207031-16.566406-4.207031-5.519532 0-10 4.476562-10 10s4.480468 10 10 10zm0 0"/><path d="m315.539062 46.332031c3.648438 0 7.148438 1.347657 9.847657 3.796875 1.90625 1.730469 4.3125 2.59375 6.71875 2.59375s4.808593-.863281 6.714843-2.59375c2.699219-2.449218 6.199219-3.796875 9.847657-3.796875 5.523437 0 10-4.476562 10-10 0-5.523437-4.476563-10-10-10-5.84375 0-11.523438 1.464844-16.5625 4.207031-5.042969-2.742187-10.71875-4.207031-16.5625-4.207031-5.523438 0-10 4.476563-10 10 0 5.523438 4.476562 10 9.996093 10zm0 0"/><path d="m371.390625 94.519531c3.648437 0 7.144531 1.347657 9.847656 3.796875 1.90625 1.726563 4.3125 2.589844 6.714844 2.589844 2.40625 0 4.8125-.863281 6.71875-2.589844 2.699219-2.449218 6.195313-3.796875 9.847656-3.796875 5.519531 0 10-4.480469 10-10 0-5.523437-4.480469-10-10-10-5.84375 0-11.523437 1.460938-16.5625 4.207031-5.042969-2.746093-10.722656-4.207031-16.5625-4.207031-5.523437 0-10 4.476563-10 10 0 5.519531 4.472657 10 9.996094 10zm0 0"/></g><g transform="matrix(0.1171875 0 0 0.1171875 137 105)" id="L1_2"><path d="m314.378906 248h-115.40625c-14.242187 0-27.109375 8.515625-32.671875 21.625l-30.753906 72.4375h242.253906l-30.75-72.4375c-5.566406-13.109375-18.429687-21.625-32.671875-21.625zm0 0" fill="#ade5ff"/><path d="m125.0625 432c.027344-17.039062 13.847656-30.84375 30.894531-30.84375s30.867188 13.804688 30.894531 30.84375h165.378907c.03125-17.039062 13.851562-30.84375 30.894531-30.84375 17.046875 0 30.867188 13.804688 30.894531 30.84375h39.210938v-45.566406c0-24.503906-19.867188-44.371094-44.371094-44.371094h-291.089844c-24.503906 0-44.367187 19.867188-44.367187 44.371094v45.566406zm0 0" fill="#ff5d5d"/><path d="m345.605469 151.5v-77.5h-40v77.5l20 52zm0 0" fill="#6a80ff"/><path d="m351.355469 18h150.644531v48h-150.644531zm0 0" fill="#6a80ff"/><path d="m357.605469 42c0 17.671875-14.328125 32-32 32-17.675781 0-32-14.328125-32-32s14.324219-32 32-32c17.671875 0 32 14.328125 32 32zm0 0" fill="#ade5ff"/><path d="m467 502h-422c-19.328125 0-35-15.671875-35-35s15.671875-35 35-35h422c19.328125 0 35 15.671875 35 35s-15.671875 35-35 35zm0 0" fill="#2e9de3"/><path d="m136.675781 67.835938 72.578125 72.574218c8.144532 8.144532 8.144532 21.351563 0 29.496094-8.148437 8.144531-21.351562 8.144531-29.496094 0l-53.59375-53.589844zm0 0" fill="#6a80ff"/><path d="m10 156.667969 88.804688-88.800781c10.464843-10.46875 27.433593-10.46875 37.902343 0 10.46875 10.464843 10.46875 27.4375 0 37.902343l-126.699219 126.703125zm0 0" fill="#6a80ff"/><path d="m144.542969 86.710938c0 14.75-11.960938 26.710937-26.710938 26.710937s-26.710937-11.960937-26.710937-26.710937c0-14.753907 11.960937-26.710938 26.710937-26.710938s26.710938 11.957031 26.710938 26.710938zm0 0" fill="#ade5ff"/><path d="m502 56c-2.628906 0-5.210938 1.070312-7.070312 2.929688-1.859376 1.859374-2.929688 4.441406-2.929688 7.070312s1.070312 5.210938 2.929688 7.070312c1.859374 1.859376 4.441406 2.929688 7.070312 2.929688s5.210938-1.070312 7.070312-2.929688c1.859376-1.859374 2.929688-4.441406 2.929688-7.070312s-1.070312-5.210938-2.929688-7.070312c-1.859374-1.859376-4.441406-2.929688-7.070312-2.929688zm0 0"/><path d="m467 422h-3.769531v-35.566406c0-29.980469-24.390625-54.371094-54.371094-54.371094h-24.4375l-28.167969-66.34375c-4.1875-9.871094-11.574218-17.6875-20.648437-22.472656v-37.90625l19.34375-50.804688c.433593-1.136718.65625-2.34375.65625-3.558594v-74.976562h106.0625c5.519531 0 10-4.476562 10-10s-4.480469-10-10-10h-96.472657c1.554688-4.382812 2.40625-9.09375 2.40625-14s-.851562-9.617188-2.40625-14h136.804688c5.523438 0 10-4.476562 10-10s-4.476562-10-10-10h-150.644531c-.359375 0-.710938.019531-1.058594.058594-6.933594-5.0625-15.46875-8.058594-24.691406-8.058594-23.160157 0-42 18.839844-42 42 0 11.566406 4.699219 22.054688 12.285156 29.65625-.179687.753906-.285156 1.535156-.285156 2.34375v76.976562c0 1.214844.21875 2.421876.652343 3.558594l19.347657 50.804688v32.683594c-.410157-.011719-.816407-.023438-1.226563-.023438h-115.40625c-18.292968 0-34.730468 10.878906-41.878906 27.71875l-28.164062 66.34375h-11.15625c-29.980469 0-54.371094 24.390625-54.371094 54.371094v35.566406h-18.402344c-24.8125 0-45 20.1875-45 45s20.1875 45 45 45h422c24.8125 0 45-20.1875 45-45s-20.1875-45-45-45zm-141.394531-338c3.445312 0 6.792969-.425781 10-1.214844v53.046875h-20v-53.042969c3.207031.785157 6.550781 1.210938 10 1.210938zm7.449219 71.835938-7.449219 19.5625-7.453125-19.5625zm-7.449219-135.835938c12.128906 0 22 9.867188 22 22s-9.871094 22-22 22c-12.132813 0-22-9.867188-22-22s9.867187-22 22-22zm12.238281 253.53125 24.847656 58.53125h-96.015625v-74.0625h47.703125c10.25 0 19.460938 6.097656 23.464844 15.53125zm-162.339844 0c4.003906-9.433594 13.21875-15.53125 23.46875-15.53125h47.703125v74.0625h-96.019531zm-92.101562 112.902344c0-18.953125 15.417968-34.371094 34.371094-34.371094h291.085937c18.953125 0 34.371094 15.417969 34.371094 34.371094v35.566406h-20.460938c-4.496093-17.699219-20.574219-30.84375-39.644531-30.84375-19.066406 0-35.144531 13.144531-39.640625 30.84375h-147.882813c-4.496093-17.699219-20.578124-30.84375-39.644531-30.84375-19.066406 0-35.148437 13.144531-39.644531 30.84375h-32.910156zm318.03125 35.566406h-36.613282c3.5625-6.457031 10.433594-10.84375 18.304688-10.84375 7.875 0 14.746094 4.386719 18.308594 10.84375zm-227.171875 0h-36.613281c3.5625-6.457031 10.4375-10.84375 18.308593-10.84375 7.871094 0 14.746094 4.386719 18.304688 10.84375zm292.738281 70h-422c-13.785156 0-25-11.214844-25-25s11.214844-25 25-25h422c13.785156 0 25 11.214844 25 25s-11.214844 25-25 25zm0 0"/><path d="m64 457c-2.628906 0-5.210938 1.070312-7.070312 2.929688-1.859376 1.859374-2.929688 4.441406-2.929688 7.070312s1.070312 5.210938 2.929688 7.070312c1.859374 1.859376 4.441406 2.929688 7.070312 2.929688s5.210938-1.070312 7.070312-2.929688c1.859376-1.859374 2.929688-4.441406 2.929688-7.070312s-1.070312-5.210938-2.929688-7.070312c-1.859374-1.859376-4.441406-2.929688-7.070312-2.929688zm0 0"/><path d="m256 457c-2.628906 0-5.210938 1.070312-7.070312 2.929688-1.859376 1.859374-2.929688 4.441406-2.929688 7.070312s1.070312 5.210938 2.929688 7.070312c1.859374 1.859376 4.441406 2.929688 7.070312 2.929688s5.210938-1.070312 7.070312-2.929688c1.859376-1.859374 2.929688-4.441406 2.929688-7.070312s-1.070312-5.210938-2.929688-7.070312c-1.859374-1.859376-4.441406-2.929688-7.070312-2.929688zm0 0"/><path d="m192 457c-2.628906 0-5.210938 1.070312-7.070312 2.929688-1.859376 1.859374-2.929688 4.441406-2.929688 7.070312s1.070312 5.210938 2.929688 7.070312c1.859374 1.859376 4.441406 2.929688 7.070312 2.929688s5.210938-1.070312 7.070312-2.929688c1.859376-1.859374 2.929688-4.441406 2.929688-7.070312s-1.070312-5.210938-2.929688-7.070312c-1.859374-1.859376-4.441406-2.929688-7.070312-2.929688zm0 0"/><path d="m128 457c-2.628906 0-5.210938 1.070312-7.070312 2.929688-1.859376 1.859374-2.929688 4.441406-2.929688 7.070312s1.070312 5.210938 2.929688 7.070312c1.859374 1.859376 4.441406 2.929688 7.070312 2.929688s5.210938-1.070312 7.070312-2.929688c1.859376-1.859374 2.929688-4.441406 2.929688-7.070312s-1.070312-5.210938-2.929688-7.070312c-1.859374-1.859376-4.441406-2.929688-7.070312-2.929688zm0 0"/><path d="m448 457c-2.628906 0-5.210938 1.070312-7.070312 2.929688-1.859376 1.859374-2.929688 4.441406-2.929688 7.070312s1.070312 5.210938 2.929688 7.070312c1.859374 1.859376 4.441406 2.929688 7.070312 2.929688s5.210938-1.070312 7.070312-2.929688c1.859376-1.859374 2.929688-4.441406 2.929688-7.070312s-1.070312-5.210938-2.929688-7.070312c-1.859374-1.859376-4.441406-2.929688-7.070312-2.929688zm0 0"/><path d="m320 457c-2.628906 0-5.210938 1.070312-7.070312 2.929688-1.859376 1.859374-2.929688 4.441406-2.929688 7.070312s1.070312 5.210938 2.929688 7.070312c1.859374 1.859376 4.441406 2.929688 7.070312 2.929688s5.210938-1.070312 7.070312-2.929688c1.859376-1.859374 2.929688-4.441406 2.929688-7.070312s-1.070312-5.210938-2.929688-7.070312c-1.859374-1.859376-4.441406-2.929688-7.070312-2.929688zm0 0"/><path d="m384 457c-2.628906 0-5.210938 1.070312-7.070312 2.929688-1.859376 1.859374-2.929688 4.441406-2.929688 7.070312s1.070312 5.210938 2.929688 7.070312c1.859374 1.859376 4.441406 2.929688 7.070312 2.929688s5.210938-1.070312 7.070312-2.929688c1.859376-1.859374 2.929688-4.429687 2.929688-7.070312s-1.070312-5.210938-2.929688-7.070312c-1.859374-1.859376-4.441406-2.929688-7.070312-2.929688zm0 0"/><path d="m17.070312 163.738281 65.820313-65.816406c1.722656 5.394531 4.710937 10.472656 8.984375 14.746094 4.285156 4.285156 9.378906 7.277343 14.796875 8.996093l-103.738281 103.738282c-3.902344 3.902344-3.902344 10.234375 0 14.140625 1.953125 1.953125 4.511718 2.929687 7.074218 2.929687 2.558594 0 5.117188-.976562 7.070313-2.929687l109.085937-109.085938 46.519532 46.519531c5.828125 5.828126 13.578125 9.039063 21.820312 9.039063 4.785156 0 9.402344-1.089844 13.574219-3.136719l27.523437 27.519532c1.953126 1.953124 4.511719 2.929687 7.070313 2.929687s5.117187-.976563 7.070313-2.929687c3.90625-3.90625 3.90625-10.238282 0-14.140626l-27.519532-27.523437c2.046875-4.175781 3.136719-8.792969 3.136719-13.578125 0-8.242188-3.210937-15.992188-9.039063-21.816406l-72.574218-72.578125c-.015625-.015625-.03125-.027344-.050782-.042969-6.941406-6.902344-16.144531-10.703125-25.941406-10.703125-9.828125 0-19.070312 3.828125-26.023437 10.78125l-88.800781 88.800781c-3.90625 3.90625-3.90625 10.238282 0 14.144532 3.90625 3.902343 10.234374 3.902343 14.140624-.003907zm188.289063-8.582031c0 2.902344-1.128906 5.625-3.175781 7.675781v.003907c-.003906 0-.003906 0-.003906 0-2.050782 2.050781-4.777344 3.179687-7.675782 3.179687-2.898437 0-5.625-1.128906-7.675781-3.179687l-46.519531-46.519532 3.472656-3.472656c4.203125-4.203125 7.253906-9.246094 9.015625-14.746094l49.382813 49.382813c2.050781 2.050781 3.179687 4.777343 3.179687 7.675781zm-75.726563-80.222656.007813.007812c3.171875 3.175782 4.917969 7.390625 4.917969 11.878906 0 4.085938-1.464844 7.941407-4.121094 10.996094-.273438.21875-.535156.457032-.789062.710938-6.515626 6.515625-17.117188 6.511718-23.632813 0-6.515625-6.515625-6.515625-17.117188 0-23.632813.15625-.152343.292969-.316406.433594-.480469 3.101562-2.828124 7.082031-4.398437 11.308593-4.398437 4.484376 0 8.699219 1.746094 11.875 4.917969zm0 0"/></g><g transform="matrix(0.1171875 0 0 0.1171875 -22 109)" id="L1_3"><path d="m92.671875 10h-49.34375c-6.769531 6.765625-10.5625 10.558594-17.328125 17.328125v101.34375c6.765625 6.769531 10.558594 10.5625 17.328125 17.328125h49.34375c6.769531-6.765625 10.5625-10.558594 17.328125-17.328125v-101.34375c-6.765625-6.769531-10.558594-10.5625-17.328125-17.328125zm0 0" fill="#ff5d5d"/><path d="m82.667969 78c0 8.101562-6.566407 14.667969-14.667969 14.667969s-14.667969-6.566407-14.667969-14.667969 6.566407-14.667969 14.667969-14.667969 14.667969 6.566407 14.667969 14.667969zm0 0" fill="#ffffff"/><path d="m10 218h210.042969c19.882812 0 36-16.117188 36-36s-16.117188-36-36-36h-210.042969zm0 0" fill="#5a54e0"/><path d="m155.804688 289h129.59375l49.601562 69h-129.59375zm0 0" fill="#ffc66c"/><path d="m501.007812 289h-116.40625l-49.601562 69h116.40625zm0 0" fill="#ffb954"/><path d="m205.40625 358h246v144h-246zm0 0" fill="#ffb954"/><path d="m205.40625 358h129.59375v144h-129.59375zm0 0" fill="#ffc66c"/><path d="m222.84375 10h-49.347656c-6.765625 6.765625-10.558594 10.558594-17.328125 17.328125v101.34375l17.328125 17.328125h49.347656c6.765625-6.765625 10.558594-10.558594 17.324219-17.328125v-101.34375c-6.765625-6.769531-10.558594-10.5625-17.324219-17.328125zm0 0" fill="#ff5d5d"/><path d="m212.835938 78c0 8.101562-6.566407 14.667969-14.667969 14.667969-8.097657 0-14.664063-6.566407-14.664063-14.667969s6.566406-14.667969 14.664063-14.667969c8.101562 0 14.667969 6.566407 14.667969 14.667969zm0 0" fill="#ffffff"/><path d="m365 14.613281h137v48h-137zm0 0" fill="#5a54e0"/><path d="m319.25 38.613281c0-15.464843 12.535156-28.503906 28-28.503906s28 13.039063 28 28.503906c0 15.464844-12.535156 28-28 28s-28-12.535156-28-28zm0 0" fill="#4dbaf6"/><path d="m501.007812 279h-116.40625c-3.21875 0-6.238281 1.550781-8.117187 4.164062l-41.484375 57.703126-41.484375-57.703126c-1.878906-2.613281-4.898437-4.164062-8.117187-4.164062h-129.59375c-3.753907 0-7.1875 2.101562-8.898438 5.4375-1.714844 3.339844-1.414062 7.355469.777344 10.398438l47.722656 66.386718v140.777344c0 5.523438 4.476562 10 10 10h246c5.523438 0 10-4.476562 10-10v-140.777344l47.722656-66.386718c2.191406-3.046876 2.492188-7.058594.78125-10.398438-1.714844-3.335938-5.148437-5.4375-8.902344-5.4375zm-220.738281 20 35.226563 49h-104.964844l-35.222656-49zm-64.863281 69h109.59375v124h-109.59375zm226 124h-19.90625v-44.667969c0-5.523437-4.476562-10-10-10s-10 4.476563-10 10v44.667969h-56.5v-124h96.40625zm4.871094-144h-91.773438l35.226563-49h91.773437zm0 0"/><path d="m266.042969 182c0-17.578125-9.914063-32.875-24.441407-40.617188l5.636719-5.636718c1.875-1.875 2.929688-4.421875 2.929688-7.070313v-101.347656c0-2.652344-1.054688-5.195313-2.929688-7.070313l-17.324219-17.328124c-1.875-1.875-4.421874-2.929688-7.070312-2.929688h-49.347656c-2.652344 0-5.195313 1.054688-7.070313 2.929688l-17.328125 17.324218c-1.875 1.875-2.929687 4.421875-2.929687 7.070313v101.347656c0 2.652344 1.054687 5.195313 2.929687 7.070313l.253906.257812h-32.535156l.253906-.257812c1.875-1.875 2.929688-4.417969 2.929688-7.070313v-101.34375c0-2.652344-1.054688-5.195313-2.929688-7.070313l-17.324218-17.328124c-1.878906-1.875-4.421875-2.929688-7.074219-2.929688h-49.34375c-2.652344 0-5.195313 1.054688-7.070313 2.929688l-17.328124 17.324218c-1.875 1.878906-2.929688 4.421875-2.929688 7.074219v101.347656c0 2.648438 1.054688 5.195313 2.929688 7.070313l.253906.253906h-9.183594c-5.523438 0-10 4.476562-10 10s4.476562 10 10 10h210.042969c14.335937 0 26 11.664062 26 26s-11.664063 26-26 26h-210.042969c-5.523438 0-10 4.476562-10 10s4.476562 10 10 10h210.042969c25.363281 0 46-20.636719 46-46zm-218.574219-46-11.46875-11.46875v-93.0625l11.46875-11.46875h41.0625l11.46875 11.46875v93.0625l-11.46875 11.46875zm130.167969 0-11.46875-11.46875v-93.0625l11.46875-11.46875h41.0625l11.46875 11.46875v93.0625l-11.46875 11.46875zm0 0"/><path d="m10 192h166.542969c5.523437 0 10-4.476562 10-10s-4.476563-10-10-10h-166.542969c-5.523438 0-10 4.476562-10 10s4.476562 10 10 10zm0 0"/><path d="m225.109375 189.070312c1.859375-1.859374 2.929687-4.441406 2.929687-7.070312s-1.070312-5.210938-2.929687-7.070312c-1.859375-1.859376-4.4375-2.929688-7.070313-2.929688-2.628906 0-5.210937 1.070312-7.070312 2.929688-1.859375 1.859374-2.929688 4.441406-2.929688 7.070312s1.070313 5.210938 2.929688 7.070312c1.859375 1.859376 4.441406 2.929688 7.070312 2.929688 2.632813 0 5.210938-1.070312 7.070313-2.929688zm0 0"/><path d="m68 53.332031c-13.601562 0-24.667969 11.066407-24.667969 24.667969s11.066407 24.667969 24.667969 24.667969 24.667969-11.066407 24.667969-24.667969-11.066407-24.667969-24.667969-24.667969zm0 29.335938c-2.574219 0-4.667969-2.09375-4.667969-4.667969s2.09375-4.667969 4.667969-4.667969 4.667969 2.09375 4.667969 4.667969-2.09375 4.667969-4.667969 4.667969zm0 0"/><path d="m198.167969 53.332031c-13.601563 0-24.667969 11.066407-24.667969 24.667969s11.066406 24.667969 24.667969 24.667969c13.601562 0 24.667969-11.066407 24.667969-24.667969s-11.066407-24.667969-24.667969-24.667969zm0 29.335938c-2.574219 0-4.667969-2.09375-4.667969-4.667969s2.09375-4.667969 4.667969-4.667969 4.667969 2.09375 4.667969 4.667969-2.09375 4.667969-4.667969 4.667969zm0 0"/><path d="m502 52.613281h-119.433594c1.722656-4.335937 2.683594-9.058593 2.683594-14 0-4.9375-.933594-9.65625-2.613281-14h119.363281c5.523438 0 10-4.476562 10-10 0-5.523437-4.476562-10-10-10h-136.941406c-5.316406-2.871093-11.375-4.503906-17.808594-4.503906-20.953125 0-38 17.273437-38 38.503906 0 11.347657 5.007812 21.539063 12.917969 28.507813v27.039062l-33.597657 33.625c-3.125 3.128906-3.824218 7.9375-1.71875 11.828125l16.167969 29.894531c1.808594 3.34375 5.25 5.246094 8.804688 5.246094 1.605469 0 3.238281-.390625 4.75-1.207031 4.859375-2.628906 6.664062-8.695313 4.039062-13.554687l-12.625-23.339844 26.871094-26.894532h24.78125l26.871094 26.894532-12.625 23.339844c-2.625 4.859374-.816407 10.925781 4.039062 13.554687 1.511719.816406 3.144531 1.207031 4.75 1.207031 3.554688 0 6.996094-1.902344 8.804688-5.246094l16.167969-29.894531c2.105468-3.890625 1.40625-8.699219-1.71875-11.828125l-33.59375-33.625v-21.546875h129.664062c5.523438 0 10-4.476562 10-10 0-5.523437-4.476562-10-10-10zm-154.75-32.503906c9.757812 0 18 8.472656 18 18.503906 0 9.925781-8.074219 18-18 18s-18-8.074219-18-18c0-10.03125 8.242188-18.503906 18-18.503906zm-5.082031 69.644531v-13.492187c1.664062.226562 3.359375.351562 5.082031.351562 1.726562 0 3.417969-.125 5.082031-.351562v13.492187zm0 0"/><path d="m411.5 420.671875c2.628906 0 5.210938-1.070313 7.070312-2.933594 1.859376-1.859375 2.929688-4.4375 2.929688-7.066406 0-2.640625-1.070312-5.210937-2.929688-7.070313-1.859374-1.871093-4.441406-2.929687-7.070312-2.929687s-5.210938 1.058594-7.070312 2.929687c-1.859376 1.859376-2.929688 4.429688-2.929688 7.070313 0 2.628906 1.070312 5.207031 2.929688 7.066406 1.859374 1.863281 4.441406 2.933594 7.070312 2.933594zm0 0"/></g></defs><g fi:class="KUsePattern" opacity="0.14"><pattern id="pattern_L1_0" width="350" height="350" patternUnits="userSpaceOnUse"><use xlink:href="#L1_0" x="-350" y="-350"/><use xlink:href="#L1_0" x="0" y="-350"/><use xlink:href="#L1_0" x="350" y="-350"/><use xlink:href="#L1_0" x="-350" y="0"/><use xlink:href="#L1_0" x="0" y="0"/><use xlink:href="#L1_0" x="350" y="0"/><use xlink:href="#L1_0" x="-350" y="350"/><use xlink:href="#L1_0" x="0" y="350"/><use xlink:href="#L1_0" x="350" y="350"/></pattern><rect x="0" y="0" width="100%" height="100%" fill="url(#pattern_L1_0)"/></g><g fi:class="KUsePattern" opacity="0.13"><pattern id="pattern_L1_1" width="350" height="350" patternUnits="userSpaceOnUse"><use xlink:href="#L1_1" x="-350" y="-350"/><use xlink:href="#L1_1" x="0" y="-350"/><use xlink:href="#L1_1" x="350" y="-350"/><use xlink:href="#L1_1" x="-350" y="0"/><use xlink:href="#L1_1" x="0" y="0"/><use xlink:href="#L1_1" x="350" y="0"/><use xlink:href="#L1_1" x="-350" y="350"/><use xlink:href="#L1_1" x="0" y="350"/><use xlink:href="#L1_1" x="350" y="350"/></pattern><rect x="0" y="0" width="100%" height="100%" fill="url(#pattern_L1_1)"/></g><g fi:class="KUsePattern" opacity="0.14"><pattern id="pattern_L1_2" width="350" height="350" patternUnits="userSpaceOnUse"><use xlink:href="#L1_2" x="-350" y="-350"/><use xlink:href="#L1_2" x="0" y="-350"/><use xlink:href="#L1_2" x="350" y="-350"/><use xlink:href="#L1_2" x="-350" y="0"/><use xlink:href="#L1_2" x="0" y="0"/><use xlink:href="#L1_2" x="350" y="0"/><use xlink:href="#L1_2" x="-350" y="350"/><use xlink:href="#L1_2" x="0" y="350"/><use xlink:href="#L1_2" x="350" y="350"/></pattern><rect x="0" y="0" width="100%" height="100%" fill="url(#pattern_L1_2)"/></g><g fi:class="KUsePattern" opacity="0.13"><pattern id="pattern_L1_3" width="350" height="350" patternUnits="userSpaceOnUse"><use xlink:href="#L1_3" x="-350" y="-350"/><use xlink:href="#L1_3" x="0" y="-350"/><use xlink:href="#L1_3" x="350" y="-350"/><use xlink:href="#L1_3" x="-350" y="0"/><use xlink:href="#L1_3" x="0" y="0"/><use xlink:href="#L1_3" x="350" y="0"/><use xlink:href="#L1_3" x="-350" y="350"/><use xlink:href="#L1_3" x="0" y="350"/><use xlink:href="#L1_3" x="350" y="350"/></pattern><rect x="0" y="0" width="100%" height="100%" fill="url(#pattern_L1_3)"/></g></svg>