<svg xmlns="http://www.w3.org/2000/svg" xmlns:xlink="http://www.w3.org/1999/xlink" xmlns:fi="http://pattern.flaticon.com/" x="0" y="0" width="700" height="350" viewBox="0 0 700 350"><rect x="0px" y="0px" width="100%" height="100%" opacity="0.4" fill="#ffffff"/><defs><g transform="matrix(0.10428246110677719 0 0 0.10428246110677719 237.5 150)" id="L1_3"><path d="m231.425781 214.722656h57.8125v33.035156h-57.8125zm0 0" fill="#aabece"/><path d="m82.773438 280.792969h214.722656c18.242187 0 33.035156 14.789062 33.035156 33.035156v132.136719h-280.792969v-132.136719c0-18.246094 14.789063-33.035156 33.035157-33.035156zm0 0" fill="#e9686a"/><path d="m305.753906 371.636719h-16.515625v-49.550781h-33.035156v-16.515626h33.035156c9.117188.007813 16.507813 7.398438 16.515625 16.515626zm0 0" fill="#ffffff"/><path d="m330.53125 231.242188c0 18.242187-14.792969 33.035156-33.035156 33.035156-18.246094 0-33.035156-14.792969-33.035156-33.035156 0-18.246094 14.789062-33.035157 33.035156-33.035157 18.242187 0 33.035156 14.789063 33.035156 33.035157zm0 0" fill="#5a6470"/><path d="m33.21875 445.964844h313.828125v33.035156h-313.828125zm0 0" fill="#5a6470"/><path d="m148.839844 148.65625h82.585937v132.136719h-82.585937zm0 0" fill="#5a6470"/><path d="m289.238281 148.65625h-198.207031l33.03125-82.585938h132.140625zm0 0" fill="#e9686a"/><path d="m148.839844 33.035156-16.515625-33.035156h-132.140625v181.691406h148.65625v-33.035156h-115.621094v-115.621094zm0 0" fill="#aabece"/><path d="m247.945312 0-16.519531 33.035156h115.621094v115.621094h-115.621094v33.035156h148.65625v-181.691406zm0 0" fill="#aabece"/><g fill="#ffffff"><path d="m165.355469 90.84375h16.519531v16.519531h-16.519531zm0 0"/><path d="m198.390625 90.84375h16.519531v16.519531h-16.519531zm0 0"/><path d="m231.425781 90.84375h16.519531v16.519531h-16.519531zm0 0"/><path d="m132.324219 90.84375h16.515625v16.519531h-16.515625zm0 0"/><path d="m289.238281 388.15625h16.515625v16.515625h-16.515625zm0 0"/></g><path d="m172.117188 345.359375c6.132812-26.636719-6.761719-31.53125-6.761719-31.53125 29.859375 2.375 32.523437 32.867187 33.035156 33.035156 5.738281-8.582031 14.652344-14.523437 24.777344-16.519531-5.0625 7.855469-7.445313 17.140625-6.796875 26.464844.378906 3.730468 1.320312 7.382812 2.796875 10.828125 2.195312 3.753906 3.558593 7.933593 4 12.261719-.554688 18.007812-15.023438 32.476562-33.03125 33.035156-17.371094.875-32.164063-12.496094-33.039063-29.871094-.425781-8.519531 2.617188-16.847656 8.441406-23.082031 3.167969-4.371094 5.40625-9.347657 6.578126-14.621094zm0 0" fill="#fdbd40"/></g><g transform="matrix(0.14599545300006866 0 0 0.14599545300006866 315 -34)" id="L1_4"><g fill="#cfdfe8"><path d="m99.296875 198.207031h-33.035156l-33.035157-148.65625h33.035157zm0 0"/><path d="m214.917969 198.207031h33.035156l33.035156-148.65625h-33.035156zm0 0"/><path d="m16.710938 297.308594h280.792968v148.65625h-280.792968zm0 0"/></g><path d="m.191406 445.964844h313.828125v33.035156h-313.828125zm0 0" fill="#5a6470"/><path d="m297.503906 297.308594h-280.792968l49.550781-66.066406h181.691406zm0 0" fill="#5a6470"/><path d="m66.261719 198.207031h181.691406v33.035157h-181.691406zm0 0" fill="#7d8d9c"/><path d="m66.261719 198.207031 90.84375-49.550781 90.847656 49.550781zm0 0" fill="#aabece"/><path d="m190.140625 115.621094c0 18.242187-14.789063 33.035156-33.035156 33.035156-18.242188 0-33.03125-14.792969-33.03125-33.035156 0-18.246094 14.789062-33.035156 33.03125-33.035156 18.246093 0 33.035156 14.789062 33.035156 33.035156zm0 0" fill="#5a6470"/><path d="m33.226562 0h247.761719v49.550781h-247.761719zm0 0" fill="#5a6470"/><path d="m297.503906 429.449219v-90.847657l49.550782-90.84375h49.550781zm0 0" fill="#5a6470"/><path d="m49.746094 421.1875c-4.558594.003906-8.257813-3.6875-8.261719-8.246094 0-.003906 0-.007812 0-.011718v-16.515626c0-4.5625 3.699219-8.257812 8.261719-8.257812 4.558594 0 8.257812 3.695312 8.257812 8.257812v16.515626c.003906 4.558593-3.691406 8.257812-8.25 8.257812-.003906 0-.007812 0-.007812 0zm0 0" fill="#ffffff"/><path d="m264.46875 371.636719c-4.558594.003906-8.253906-3.6875-8.257812-8.246094 0-.003906 0-.007813 0-.011719v-24.773437h-41.292969c-4.5625 0-8.257813-3.699219-8.257813-8.261719 0-4.558594 3.695313-8.257812 8.257813-8.257812h49.550781c4.558594-.003907 8.257812 3.691406 8.261719 8.25v.007812 33.035156c0 4.558594-3.691407 8.253906-8.25 8.257813-.003907 0-.007813 0-.011719 0zm0 0" fill="#ffffff"/><path d="m264.46875 421.1875c-4.558594.003906-8.253906-3.6875-8.257812-8.246094 0-.003906 0-.007812 0-.011718v-16.515626c0-4.5625 3.695312-8.257812 8.257812-8.257812s8.261719 3.695312 8.261719 8.257812v16.515626c0 4.558593-3.691407 8.257812-8.25 8.257812-.003907 0-.007813 0-.011719 0zm0 0" fill="#ffffff"/><path d="m380.097656 222.984375c-2.765625.003906-5.347656-1.378906-6.878906-3.679687l-16.515625-24.773438c-1.847656-2.777344-1.847656-6.390625 0-9.164062l13.457031-20.195313-13.457031-20.195313c-2.496094-3.820312-1.417969-8.9375 2.398437-11.429687 3.769532-2.457031 8.8125-1.449219 11.34375 2.269531l16.515626 24.773438c1.847656 2.773437 1.847656 6.386718 0 9.164062l-13.460938 20.195313 13.460938 20.195312c2.53125 3.792969 1.503906 8.921875-2.289063 11.453125-1.355469.902344-2.945313 1.382813-4.574219 1.386719zm0 0" fill="#fdbd40"/><path d="m81.125 269.226562c2.746094-3.636718 2.023438-8.816406-1.617188-11.5625-3.640624-2.742187-8.816406-2.019531-11.5625 1.621094-.007812.011719-.019531.023438-.027343.039063l-24.777344 33.035156c-.148437.269531-.285156.550781-.402344.835937-.609375.957032-.976562 2.054688-1.0625 3.1875-.082031.304688-.144531.613282-.1875.925782v66.070312c0 4.5625 3.695313 8.257813 8.257813 8.257813s8.257812-3.695313 8.257812-8.257813v-63.320312zm0 0" fill="#ffffff"/><path d="m112.507812 257.671875c-3.648437-2.734375-8.820312-1.992187-11.558593 1.652344l-24.773438 33.035156c-.152343.269531-.285156.550781-.402343.839844-.609376.957031-.976563 2.050781-1.0625 3.183593-.082032.304688-.144532.613282-.1875.929688v115.617188c0 4.5625 3.695312 8.261718 8.257812 8.261718s8.257812-3.699218 8.257812-8.261718v-112.871094l23.125-30.832032c2.734376-3.636718 2.003907-8.804687-1.636718-11.542968-.007813-.003906-.011719-.007813-.019532-.011719zm0 0" fill="#ffffff"/></g><g transform="matrix(0.10428246110677719 0 0 0.10428246110677719 150 -25.00000002607061)" id="L1_5"><path d="m148.65625 148.828125h-16.519531c-9.117188-.015625-16.503907-7.402344-16.515625-16.519531v-16.515625c.011718-9.117188 7.398437-16.503907 16.515625-16.515625h16.519531c4.558594-.003906 8.253906 3.6875 8.257812 8.246094v.011718 33.035156c.003907 4.558594-3.691406 8.253907-8.25 8.257813-.003906 0-.007812 0-.007812 0zm-16.519531-33.035156v16.515625h8.261719v-16.515625zm0 0" fill="#5a6470"/><path d="m148.65625 99.273438h49.550781c4.5625 0 8.257813 3.699218 8.257813 8.261718v66.066406c0 4.5625-3.695313 8.257813-8.257813 8.257813h-49.550781c-4.5625 0-8.261719-3.695313-8.261719-8.257813v-66.066406c0-4.5625 3.699219-8.261718 8.261719-8.261718zm0 0" fill="#7d8d9c"/><path d="m173.429688 82.757812c-2.191407.003907-4.289063-.867187-5.839844-2.417968l-8.28125-8.285156c-7.757813-7.777344-7.757813-20.367188 0-28.144532 1.351562-1.308594 1.382812-3.464844.074218-4.8125-.007812-.011718-.015624-.019531-.027343-.027344-7.796875-7.773437-7.816407-20.394531-.046875-28.195312l8.28125-8.28125c3.253906-3.199219 8.484375-3.152344 11.679687.101562 3.152344 3.214844 3.152344 8.363282 0 11.574219l-8.285156 8.28125c-1.320313 1.324219-1.320313 3.46875 0 4.792969 7.796875 7.773438 7.816406 20.394531.050781 28.195312-.664062.640626-1.039062 1.523438-1.042968 2.441407 0 .898437.355468 1.761719.992187 2.394531l8.28125 8.285156c3.226563 3.226563 3.226563 8.453125 0 11.679688-1.546875 1.546875-3.644531 2.417968-5.835937 2.417968zm0 0" fill="#ffd782"/><path d="m99.101562 173.601562h280.796876v49.550782h-280.796876zm0 0" fill="#fdbd40"/><path d="m322.085938 388.324219h-33.035157l-123.878906-165.171875h33.035156zm0 0" fill="#d3843d"/><path d="m313.828125 223.152344h-33.035156l-123.878907 165.171875h33.035157zm0 0" fill="#ad6327"/><path d="m363.378906 272.707031h115.621094v49.550781h-115.621094zm0 0" fill="#fdbd40"/><path d="m479 388.324219h-33.035156l-66.066406-66.066407h33.03125zm0 0" fill="#d3843d"/><path d="m363.378906 388.324219h33.035156l66.066407-66.066407h-33.03125zm0 0" fill="#ad6327"/><path d="m0 272.707031h115.621094v49.550781h-115.621094zm0 0" fill="#fdbd40"/><path d="m115.621094 388.324219h-33.035156l-66.070313-66.066407h33.035156zm0 0" fill="#d3843d"/><path d="m0 388.324219h33.035156l66.066406-66.066407h-33.03125zm0 0" fill="#ad6327"/><path d="m231.242188 91.015625h49.550781v82.585937h-49.550781zm0 0" fill="#e9686a"/><path d="m231.242188 57.980469h49.550781v33.035156h-49.550781zm0 0" fill="#ed917e"/><g fill="#c8d952"><path d="m371.636719 446.136719h33.035156v16.515625h-33.035156zm0 0"/><path d="m272.535156 413.101562h33.035156v16.515626h-33.035156zm0 0"/><path d="m322.085938 413.101562h16.515624v16.515626h-16.515624zm0 0"/><path d="m421.1875 413.101562h16.519531v16.515626h-16.519531zm0 0"/><path d="m123.878906 446.136719h33.035156v16.515625h-33.035156zm0 0"/><path d="m24.777344 413.101562h33.035156v16.515626h-33.035156zm0 0"/><path d="m74.328125 413.101562h16.515625v16.515626h-16.515625zm0 0"/><path d="m173.429688 413.101562h16.519531v16.515626h-16.519531zm0 0"/></g></g><g transform="matrix(0.10428246110677719 0 0 0.10428246110677719 62.5 150)" id="L1_6"><path d="m239.734375 206.464844c-4.5625 0-8.261719 3.699218-8.261719 8.261718h-57.808594v66.066407h57.8125v49.550781c0 4.5625 3.695313 8.261719 8.257813 8.261719s8.257813-3.699219 8.257813-8.261719v-115.621094c0-4.558594-3.699219-8.257812-8.257813-8.257812zm0 0" fill="#e9686a"/><path d="m417.003906 346.847656s44.828125.761719 56.460938-9.335937c16.132812-14.003907 0-205.375-68.558594-205.375-68.5625 0-84.695312 191.371093-68.5625 205.375 11.632812 10.097656 56.460938 9.335937 56.460938 9.335937h24.199218s44.828125.761719 56.460938-9.335937" fill="#55b56a"/><path d="m86.660156 346.847656s44.828125.761719 56.460938-9.335937c16.132812-14.003907 0-205.375-68.558594-205.375-68.5625 0-84.695312 191.371093-68.5625 205.375 11.632812 10.097656 56.460938 9.335937 56.460938 9.335937h24.199218s44.828125.761719 56.460938-9.335937" fill="#55b56a"/><path d="m148.890625 33.035156c0-18.246094-14.792969-33.035156-33.035156-33.035156-18.246094 0-33.035157 14.789062-33.035157 33.035156-18.246093 0-33.035156 14.789063-33.035156 33.035156h132.136719c0-18.246093-14.789063-33.035156-33.03125-33.035156zm0 0" fill="#87cee9"/><path d="m363.613281 66.070312c0-18.246093-14.789062-33.035156-33.035156-33.035156s-33.035156 14.789063-33.035156 33.035156c-18.246094 0-33.035157 14.789063-33.035157 33.03125h132.140626c0-18.242187-14.789063-33.03125-33.035157-33.03125zm0 0" fill="#87cee9"/><path d="m239.734375 297.308594 132.136719 181.691406-132.136719-41.292969zm0 0" fill="#c8d952"/><path d="m239.734375 297.308594-132.136719 181.691406h132.136719zm0 0" fill="#c8d952"/><path d="m239.734375 479-49.554687-41.292969 49.554687-140.398437zm0 0" fill="#55b56a"/><path d="m442.894531 270.882812-9.910156-13.214843-19.820313 14.867187v-82.585937h-16.515624v49.550781l-19.820313-14.867188-9.910156 13.214844 29.730469 22.296875v45.425781l-19.820313-14.867187-9.910156 13.214844 29.730469 22.296875v20.648437h16.515624v-53.683593zm0 0" fill="#c8d952"/><path d="m388.386719 346.863281h33.035156v82.585938h-33.035156zm0 0" fill="#eaa063"/><path d="m446.199219 421.1875h16.515625v16.519531h-16.515625zm0 0" fill="#c8d952"/><path d="m112.550781 270.882812-9.910156-13.214843-19.820313 14.867187v-82.585937h-16.519531v49.550781l-19.820312-14.867188-9.910157 13.214844 29.730469 22.296875v45.425781l-19.820312-14.867187-9.910157 13.214844 29.730469 22.296875v20.648437h16.519531v-53.683593zm0 0" fill="#c8d952"/><path d="m58.042969 346.863281h33.035156v82.585938h-33.035156zm0 0" fill="#eaa063"/><path d="m33.269531 454.222656h16.515625v16.519532h-16.515625zm0 0" fill="#c8d952"/></g></defs><g fi:class="KUsePattern" opacity="0.36"><pattern id="pattern_L1_3" width="350" height="350" patternUnits="userSpaceOnUse"><use xlink:href="#L1_3" x="-350" y="-350"/><use xlink:href="#L1_3" x="0" y="-350"/><use xlink:href="#L1_3" x="350" y="-350"/><use xlink:href="#L1_3" x="-350" y="0"/><use xlink:href="#L1_3" x="0" y="0"/><use xlink:href="#L1_3" x="350" y="0"/><use xlink:href="#L1_3" x="-350" y="350"/><use xlink:href="#L1_3" x="0" y="350"/><use xlink:href="#L1_3" x="350" y="350"/></pattern><rect x="0" y="0" width="100%" height="100%" fill="url(#pattern_L1_3)"/></g><g fi:class="KUsePattern" opacity="0.35"><pattern id="pattern_L1_4" width="350" height="350" patternUnits="userSpaceOnUse"><use xlink:href="#L1_4" x="-350" y="-350"/><use xlink:href="#L1_4" x="0" y="-350"/><use xlink:href="#L1_4" x="350" y="-350"/><use xlink:href="#L1_4" x="-350" y="0"/><use xlink:href="#L1_4" x="0" y="0"/><use xlink:href="#L1_4" x="350" y="0"/><use xlink:href="#L1_4" x="-350" y="350"/><use xlink:href="#L1_4" x="0" y="350"/><use xlink:href="#L1_4" x="350" y="350"/></pattern><rect x="0" y="0" width="100%" height="100%" fill="url(#pattern_L1_4)"/></g><g fi:class="KUsePattern" opacity="0.35"><pattern id="pattern_L1_5" width="350" height="350" patternUnits="userSpaceOnUse"><use xlink:href="#L1_5" x="-350" y="-350"/><use xlink:href="#L1_5" x="0" y="-350"/><use xlink:href="#L1_5" x="350" y="-350"/><use xlink:href="#L1_5" x="-350" y="0"/><use xlink:href="#L1_5" x="0" y="0"/><use xlink:href="#L1_5" x="350" y="0"/><use xlink:href="#L1_5" x="-350" y="350"/><use xlink:href="#L1_5" x="0" y="350"/><use xlink:href="#L1_5" x="350" y="350"/></pattern><rect x="0" y="0" width="100%" height="100%" fill="url(#pattern_L1_5)"/></g><g fi:class="KUsePattern" opacity="0.34"><pattern id="pattern_L1_6" width="350" height="350" patternUnits="userSpaceOnUse"><use xlink:href="#L1_6" x="-350" y="-350"/><use xlink:href="#L1_6" x="0" y="-350"/><use xlink:href="#L1_6" x="350" y="-350"/><use xlink:href="#L1_6" x="-350" y="0"/><use xlink:href="#L1_6" x="0" y="0"/><use xlink:href="#L1_6" x="350" y="0"/><use xlink:href="#L1_6" x="-350" y="350"/><use xlink:href="#L1_6" x="0" y="350"/><use xlink:href="#L1_6" x="350" y="350"/></pattern><rect x="0" y="0" width="100%" height="100%" fill="url(#pattern_L1_6)"/></g></svg>